<svg width="241" height="70" viewBox="0 0 241 70" fill="none" xmlns="http://www.w3.org/2000/svg">
<path d="M84.428 44.4733V21.4438H90.0169V44.4733H84.428ZM87.0044 26.3589V21.4438H100.283V26.3985H87.0044V26.3589ZM87.0044 35.6341V30.9965H98.9353V35.6737H87.0044V35.6341Z" fill="white"/>
<path d="M111.936 44.7903C110.113 44.7903 108.488 44.3939 107.101 43.6011C105.674 42.8084 104.564 41.7382 103.731 40.3905C102.899 39.0428 102.503 37.4573 102.503 35.7132C102.503 33.9692 102.899 32.3837 103.731 31.036C104.564 29.6883 105.674 28.6181 107.101 27.8254C108.528 27.0326 110.153 26.6362 111.936 26.6362C113.76 26.6362 115.385 27.0326 116.772 27.8254C118.16 28.6181 119.309 29.6883 120.102 31.036C120.895 32.3837 121.331 33.9692 121.331 35.7132C121.331 37.4573 120.934 39.0428 120.102 40.3905C119.309 41.7382 118.16 42.8084 116.772 43.6011C115.385 44.3939 113.76 44.7903 111.936 44.7903ZM111.936 40.2716C112.729 40.2716 113.443 40.0734 114.037 39.677C114.632 39.2806 115.147 38.7257 115.504 38.0519C115.861 37.378 116.019 36.5853 115.979 35.7132C116.019 34.8412 115.821 34.0485 115.504 33.3746C115.147 32.7008 114.671 32.1459 114.037 31.7495C113.403 31.3531 112.729 31.1549 111.936 31.1549C111.144 31.1549 110.43 31.3531 109.796 31.7495C109.162 32.1459 108.686 32.7008 108.329 33.3746C107.973 34.0485 107.814 34.8412 107.854 35.7132C107.814 36.5853 108.012 37.378 108.329 38.0519C108.686 38.7257 109.162 39.2806 109.796 39.677C110.43 40.0734 111.144 40.2716 111.936 40.2716Z" fill="white"/>
<path d="M133.024 44.7903C131.2 44.7903 129.575 44.3939 128.188 43.6011C126.761 42.8084 125.651 41.7382 124.819 40.3905C123.986 39.0428 123.59 37.4573 123.59 35.7132C123.59 33.9692 123.986 32.3837 124.819 31.036C125.651 29.6883 126.761 28.6181 128.188 27.8254C129.615 27.0326 131.24 26.6362 133.024 26.6362C134.847 26.6362 136.472 27.0326 137.859 27.8254C139.247 28.6181 140.396 29.6883 141.189 31.036C141.982 32.3837 142.418 33.9692 142.418 35.7132C142.418 37.4573 142.021 39.0428 141.189 40.3905C140.396 41.7382 139.247 42.8084 137.859 43.6011C136.472 44.3939 134.847 44.7903 133.024 44.7903ZM133.024 40.2716C133.816 40.2716 134.53 40.0734 135.124 39.677C135.719 39.2806 136.234 38.7257 136.591 38.0519C136.948 37.378 137.106 36.5853 137.067 35.7132C137.106 34.8412 136.908 34.0485 136.591 33.3746C136.234 32.7008 135.759 32.1459 135.124 31.7495C134.49 31.3531 133.816 31.1549 133.024 31.1549C132.231 31.1549 131.517 31.3531 130.883 31.7495C130.249 32.1459 129.773 32.7008 129.417 33.3746C129.06 34.0485 128.901 34.8412 128.941 35.7132C128.901 36.5853 129.099 37.378 129.417 38.0519C129.773 38.7257 130.249 39.2806 130.883 39.677C131.517 40.0734 132.231 40.2716 133.024 40.2716Z" fill="white"/>
<path d="M152.486 44.83C150.979 44.83 149.632 44.4336 148.443 43.6805C147.254 42.8877 146.342 41.8175 145.668 40.4698C144.994 39.0825 144.637 37.5366 144.637 35.7926C144.637 34.0485 144.994 32.463 145.668 31.1154C146.342 29.728 147.293 28.6578 148.482 27.8651C149.671 27.0723 151.019 26.6759 152.565 26.6759C153.358 26.6759 154.111 26.7949 154.824 27.0327C155.538 27.2705 156.212 27.5876 156.806 28.0236C157.401 28.4596 157.876 28.9353 158.273 29.4506C158.63 30.0055 158.867 30.5604 158.947 31.1154L157.678 31.3928V20.1357H162.99V44.4732H158.075L157.797 40.5095L158.867 40.668C158.788 41.2229 158.59 41.7382 158.233 42.2535C157.876 42.7688 157.401 43.2048 156.846 43.6012C156.291 43.9976 155.617 44.275 154.904 44.5129C154.071 44.7111 153.318 44.83 152.486 44.83ZM153.873 40.4698C154.666 40.4698 155.379 40.2716 155.974 39.8753C156.568 39.4789 157.004 38.924 157.321 38.2105C157.639 37.497 157.797 36.7043 157.797 35.753C157.797 34.8017 157.639 33.9693 157.321 33.2558C157.004 32.5423 156.529 31.9874 155.974 31.591C155.379 31.1946 154.666 30.9964 153.873 30.9964C153.08 30.9964 152.367 31.1946 151.772 31.591C151.178 31.9874 150.742 32.5423 150.425 33.2558C150.107 33.9693 149.949 34.8017 149.949 35.753C149.949 36.7043 150.107 37.5366 150.425 38.2105C150.742 38.924 151.217 39.4789 151.772 39.8753C152.327 40.2716 153.041 40.4698 153.873 40.4698Z" fill="white"/>
<path d="M172.978 44.4733V26.3589H166.121V21.4438H185.583V26.3985H178.567V44.5129H172.978V44.4733Z" fill="white"/>
<path d="M187.01 44.4731V26.993H192.004L192.242 32.7008L191.251 31.6306C191.529 30.6793 191.965 29.8469 192.559 29.0938C193.154 28.3406 193.867 27.7461 194.7 27.3101C195.492 26.8741 196.364 26.6362 197.316 26.6362C197.712 26.6362 198.069 26.6759 198.426 26.7155C198.782 26.7948 199.06 26.8741 199.377 26.9533L197.91 32.7801C197.673 32.6215 197.355 32.5026 196.959 32.3837C196.563 32.3044 196.127 32.2251 195.691 32.2251C195.215 32.2251 194.739 32.3044 194.343 32.463C193.907 32.6215 193.59 32.8593 193.273 33.1764C192.995 33.4935 192.757 33.8503 192.599 34.2467C192.44 34.6827 192.361 35.1187 192.361 35.6736V44.4335H187.01V44.4731Z" fill="white"/>
<path d="M207.701 44.7505C206.234 44.7505 204.926 44.3542 203.777 43.601C202.627 42.8083 201.716 41.7381 201.042 40.3904C200.368 39.0031 200.011 37.4572 200.011 35.7528C200.011 33.9691 200.368 32.4232 201.042 31.0359C201.716 29.6882 202.667 28.618 203.856 27.8253C205.045 27.0325 206.393 26.6758 207.899 26.6758C208.732 26.6758 209.485 26.7947 210.198 27.0325C210.872 27.2703 211.506 27.6271 212.021 28.0235C212.537 28.4595 213.012 28.9351 213.369 29.4901C213.726 30.045 214.003 30.6395 214.201 31.2737L213.131 31.1548V26.9929H218.363V44.4731H213.012V40.2715L214.201 40.2318C214.043 40.866 213.726 41.421 213.329 41.9759C212.933 42.5308 212.457 43.0065 211.863 43.4425C211.308 43.8785 210.674 44.1956 209.96 44.4334C209.247 44.6316 208.494 44.7505 207.701 44.7505ZM209.128 40.3111C209.921 40.3111 210.634 40.1129 211.229 39.7562C211.823 39.3995 212.299 38.8445 212.616 38.1707C212.933 37.4968 213.092 36.6645 213.092 35.7132C213.092 34.7619 212.933 33.9691 212.616 33.2556C212.299 32.5818 211.823 32.0269 211.229 31.6305C210.634 31.2341 209.921 31.0359 209.128 31.0359C208.335 31.0359 207.661 31.2341 207.067 31.6305C206.472 32.0269 206.036 32.5421 205.719 33.2556C205.402 33.9295 205.243 34.7619 205.243 35.7132C205.243 36.6645 205.402 37.4572 205.719 38.1707C206.036 38.8445 206.512 39.3995 207.067 39.7562C207.661 40.1526 208.375 40.3111 209.128 40.3111Z" fill="white"/>
<path d="M230.611 44.7903C228.907 44.7903 227.401 44.3939 226.053 43.6011C224.705 42.8084 223.675 41.7382 222.882 40.3508C222.089 38.9635 221.733 37.4177 221.733 35.7132C221.733 33.9692 222.129 32.4233 222.882 31.0756C223.675 29.6883 224.705 28.6181 226.053 27.8254C227.401 27.0326 228.907 26.6362 230.611 26.6362C232.157 26.6362 233.584 26.9137 234.892 27.4686C236.2 28.0235 237.231 28.7767 237.984 29.7676L235.13 33.1764C234.813 32.8197 234.456 32.5026 234.06 32.1855C233.624 31.8684 233.188 31.6306 232.673 31.472C232.157 31.3135 231.642 31.1946 231.087 31.1946C230.255 31.1946 229.502 31.3927 228.867 31.7891C228.233 32.1855 227.718 32.7008 227.401 33.3746C227.044 34.0485 226.886 34.8412 226.886 35.7132C226.886 36.5456 227.084 37.2987 227.44 37.9726C227.797 38.6464 228.312 39.2014 228.947 39.5977C229.581 39.9941 230.294 40.1923 231.127 40.1923C231.682 40.1923 232.237 40.113 232.712 39.9941C233.188 39.8356 233.624 39.6374 234.06 39.3599C234.456 39.0824 234.853 38.7257 235.209 38.2897L238.024 41.7382C237.271 42.6895 236.24 43.4426 234.932 43.9579C233.545 44.5128 232.118 44.7903 230.611 44.7903Z" fill="white"/>
<path d="M84.4282 62.1916V53.3128H85.8155V62.1916H84.4282ZM85.0624 54.6208V53.3128H90.2153V54.6208H85.0624ZM85.0624 58.3864V57.0783H89.6604V58.3864H85.0624ZM99.8472 62.3105C99.213 62.3105 98.6581 62.1916 98.1032 61.9538C97.5879 61.7159 97.1123 61.3988 96.7159 61.0025C96.3195 60.6061 96.0024 60.0908 95.8042 59.5755C95.606 59.0206 95.4871 58.426 95.4871 57.7522C95.4871 57.0783 95.606 56.4838 95.8042 55.9288C96.0024 55.3739 96.3195 54.8983 96.7159 54.5019C97.1123 54.1055 97.5879 53.7884 98.1032 53.5506C98.6185 53.3128 99.213 53.1938 99.8472 53.1938C100.481 53.1938 101.036 53.3128 101.591 53.5506C102.107 53.7884 102.582 54.1055 102.979 54.5019C103.375 54.8983 103.692 55.4136 103.89 55.9685C104.088 56.5234 104.207 57.118 104.207 57.7918C104.207 58.426 104.088 59.0602 103.89 59.6151C103.692 60.1701 103.375 60.6457 102.979 61.0817C102.582 61.4781 102.107 61.8348 101.591 62.033C101.076 62.1916 100.481 62.3105 99.8472 62.3105ZM99.8472 60.9628C100.283 60.9628 100.68 60.8835 101.036 60.725C101.393 60.5664 101.71 60.3286 101.988 60.0512C102.265 59.7737 102.463 59.4169 102.622 59.0206C102.78 58.6242 102.86 58.1882 102.86 57.7522C102.86 57.2765 102.78 56.8405 102.622 56.4838C102.463 56.0874 102.265 55.7307 101.988 55.4532C101.71 55.1757 101.433 54.9379 101.036 54.7794C100.64 54.6208 100.283 54.5415 99.8472 54.5415C99.4112 54.5415 99.0149 54.6208 98.6581 54.7794C98.3014 54.9379 97.9843 55.1757 97.7068 55.4532C97.4294 55.7307 97.2312 56.0874 97.0726 56.4838C96.9141 56.8801 96.8744 57.3162 96.8744 57.7918C96.8744 58.2675 96.9537 58.7035 97.0726 59.0999C97.2312 59.4962 97.4294 59.853 97.7068 60.1304C97.9843 60.4079 98.3014 60.6457 98.6581 60.8043C99.0545 60.8835 99.4509 60.9628 99.8472 60.9628ZM113.958 62.3105C113.324 62.3105 112.769 62.1916 112.214 61.9538C111.699 61.7159 111.223 61.3988 110.827 61.0025C110.43 60.6061 110.113 60.0908 109.915 59.5755C109.717 59.0206 109.598 58.426 109.598 57.7522C109.598 57.0783 109.717 56.4838 109.915 55.9288C110.113 55.3739 110.43 54.8983 110.827 54.5019C111.223 54.1055 111.699 53.7884 112.214 53.5506C112.729 53.3128 113.324 53.1938 113.958 53.1938C114.592 53.1938 115.147 53.3128 115.702 53.5506C116.218 53.7884 116.693 54.1055 117.09 54.5019C117.486 54.8983 117.803 55.4136 118.001 55.9685C118.199 56.5234 118.318 57.118 118.318 57.7918C118.318 58.426 118.199 59.0602 118.001 59.6151C117.803 60.1701 117.486 60.6457 117.09 61.0817C116.693 61.4781 116.218 61.8348 115.702 62.033C115.187 62.1916 114.592 62.3105 113.958 62.3105ZM113.958 60.9628C114.394 60.9628 114.791 60.8835 115.147 60.725C115.504 60.5664 115.821 60.3286 116.099 60.0512C116.376 59.7737 116.574 59.4169 116.733 59.0206C116.891 58.6242 116.971 58.1882 116.971 57.7522C116.971 57.2765 116.891 56.8405 116.733 56.4838C116.574 56.0874 116.376 55.7307 116.099 55.4532C115.821 55.1757 115.544 54.9379 115.147 54.7794C114.751 54.6208 114.394 54.5415 113.958 54.5415C113.522 54.5415 113.126 54.6208 112.769 54.7794C112.412 54.9379 112.095 55.1757 111.818 55.4532C111.54 55.7307 111.342 56.0874 111.184 56.4838C111.025 56.8801 110.985 57.3162 110.985 57.7918C110.985 58.2675 111.065 58.7035 111.184 59.0999C111.342 59.4962 111.54 59.853 111.818 60.1304C112.095 60.4079 112.412 60.6457 112.769 60.8043C113.126 60.8835 113.522 60.9628 113.958 60.9628ZM124.343 62.1916V53.3128H127.831C128.466 53.3128 129.021 53.4317 129.536 53.6299C130.051 53.8281 130.487 54.1452 130.844 54.5415C131.201 54.9379 131.478 55.4136 131.676 55.9685C131.874 56.5234 131.954 57.118 131.954 57.7522C131.954 58.3864 131.874 59.0206 131.676 59.5755C131.478 60.1304 131.201 60.6061 130.844 61.0025C130.487 61.3988 130.051 61.7159 129.536 61.9141C129.021 62.1123 128.426 62.2312 127.792 62.2312H124.343V62.1916ZM125.731 61.0025L125.691 60.8439H127.752C128.188 60.8439 128.585 60.7646 128.941 60.6457C129.298 60.4872 129.575 60.289 129.813 60.0115C130.051 59.734 130.249 59.4169 130.368 59.0206C130.487 58.6242 130.566 58.1882 130.566 57.7125C130.566 57.2369 130.487 56.8009 130.368 56.4045C130.249 56.0081 130.051 55.691 129.813 55.4136C129.575 55.1361 129.258 54.9379 128.941 54.7794C128.585 54.6208 128.188 54.5812 127.752 54.5812H125.651L125.731 54.4622V61.0025ZM145.748 62.1916V53.3128H149.236C149.87 53.3128 150.425 53.4317 150.94 53.6299C151.455 53.8281 151.891 54.1452 152.248 54.5415C152.605 54.9379 152.882 55.4136 153.081 55.9685C153.279 56.5234 153.358 57.118 153.358 57.7522C153.358 58.3864 153.279 59.0206 153.081 59.5755C152.882 60.1304 152.605 60.6061 152.248 61.0025C151.891 61.3988 151.455 61.7159 150.94 61.9141C150.425 62.1123 149.83 62.2312 149.196 62.2312H145.748V62.1916ZM147.135 61.0025L147.095 60.8439H149.156C149.592 60.8439 149.989 60.7646 150.346 60.6457C150.702 60.4872 150.98 60.289 151.218 60.0115C151.455 59.734 151.654 59.4169 151.773 59.0206C151.891 58.6242 151.971 58.1882 151.971 57.7125C151.971 57.2369 151.891 56.8009 151.773 56.4045C151.654 56.0081 151.455 55.691 151.218 55.4136C150.98 55.1361 150.663 54.9379 150.346 54.7794C149.989 54.6208 149.592 54.5812 149.156 54.5812H147.056L147.135 54.4622V61.0025ZM159.423 62.1916V53.3128H165.011V54.6208H160.77V60.8439H165.011V62.1519H159.423V62.1916ZM160.057 58.3071V56.9991H164.338V58.3071H160.057ZM171.433 62.1916V53.3128H172.82V60.8835H176.982V62.1916H171.433ZM182.848 62.1916V60.9232H184.275V54.5812H182.848V53.3128H187.09V54.5812H185.663V60.9232H187.09V62.1916H182.848ZM196.048 62.1916L192.48 53.3128H194.026L196.127 58.7035C196.246 58.9809 196.325 59.2188 196.404 59.4169C196.484 59.6151 196.563 59.8133 196.603 60.0115C196.642 60.2097 196.722 60.3286 196.761 60.4872C196.801 60.6457 196.88 60.8043 196.92 60.9628H196.603C196.642 60.7646 196.722 60.5664 196.801 60.3286C196.88 60.0908 196.959 59.853 197.039 59.6151C197.118 59.3377 197.237 59.0602 197.356 58.7431L199.338 53.3524H200.923L197.356 62.2312H196.048V62.1916ZM206.71 62.1916V53.3128H212.299V54.6208H208.058V60.8439H212.299V62.1519H206.71V62.1916ZM207.305 58.3071V56.9991H211.586V58.3071H207.305ZM218.681 62.1916V53.3128H222.446C222.962 53.3128 223.437 53.4317 223.834 53.6695C224.27 53.9073 224.587 54.2641 224.864 54.7001C225.102 55.1361 225.261 55.6117 225.261 56.127C225.261 56.6027 225.142 57.0387 224.864 57.4747C224.626 57.8711 224.27 58.2278 223.834 58.4656C223.398 58.7035 222.922 58.8224 222.407 58.8224H219.989V62.1519H218.681V62.1916ZM220.028 57.5143H222.565C222.803 57.5143 223.041 57.4351 223.239 57.3162C223.437 57.1972 223.596 57.0387 223.715 56.8009C223.834 56.563 223.873 56.3649 223.873 56.0874C223.873 55.8099 223.794 55.5325 223.675 55.2946C223.517 55.0568 223.358 54.8983 223.081 54.7794C222.843 54.6604 222.565 54.5812 222.248 54.5812H220.068V57.5143H220.028ZM223.953 62.1916L221.693 58.1882L223.12 57.8711L225.617 62.1916H223.953ZM233.426 62.1916V57.7522L233.505 58.3864L229.898 53.3128H231.563L234.298 57.2369L233.981 57.1972L236.438 53.3128H238.024L234.575 58.5449L234.774 57.6729V62.1916H233.426Z" fill="url(#paint0_linear_2021_2719)"/>
<path d="M57.6726 30.3225C54.4223 30.3622 52.0441 28.0236 52.0441 24.7733C52.0441 21.6419 54.3827 19.3826 57.5537 19.4222C60.3283 19.4222 62.9444 21.959 63.0633 24.7336C63.1822 27.6272 60.6454 30.2829 57.6726 30.3225ZM33.0577 53.9862C31.9082 53.9862 30.9965 54.8979 30.9965 56.0473C30.9965 57.1968 31.9082 58.1085 33.0577 58.1085C34.2071 58.1085 35.1188 57.1968 35.1188 56.0473C35.1188 54.8979 34.2071 53.9862 33.0577 53.9862ZM55.1754 58.9805C57.633 63.3407 62.548 65.0451 67.6613 63.2614C71.2287 62.0326 74.0826 57.3157 73.4484 52.7971C73.0916 50.4981 71.9421 47.8424 70.2377 46.455C67.7009 44.3543 64.0146 43.0859 60.804 41.7778C60.249 41.54 58.5446 41.9364 58.8617 43.2444C59.7734 47.1289 60.6058 51.053 61.5967 54.8979C61.8345 55.8888 62.5084 56.8401 64.2128 56.4041C65.9569 56.0077 66.4325 53.4709 64.7281 52.6781C64.7281 52.6781 64.411 50.181 63.8561 48.9522C68.0577 49.5468 70.0792 52.6385 68.89 55.7302C68.018 58.0292 65.4019 59.6147 63.0633 59.2976C60.7247 58.9409 58.9806 57.7518 58.3861 53.6691C58.0293 51.2512 57.7519 49.309 57.3555 46.8911C53.5899 50.1017 52.8368 54.8186 55.1754 58.9805ZM50.4189 34.7223C51.3702 35.634 56.7213 39.5581 56.7213 39.5581C56.7213 39.5581 62.3498 39.5977 65.3623 39.5977C67.3442 39.5977 68.6522 38.8843 68.6522 37.2195C68.6522 35.4358 67.6216 34.8016 65.7587 34.6827C63.3011 34.5638 60.0112 34.643 57.1177 34.643L49.0712 28.3803C49.0712 28.3803 49.0712 28.3803 44.4336 30.9171C41.3023 32.2251 38.8447 33.4539 36.3476 34.9998C33.4144 36.8231 35.0792 39.8752 37.3782 40.2319C41.1437 41.3418 44.3147 42.2535 47.8028 43.284C45.9399 46.7721 42.65 52.8763 42.0157 53.9466C45.0282 53.8276 47.7236 53.6295 47.7236 53.6295C50.1811 49.309 52.5197 45.0281 54.9376 40.7076C51.8855 39.2806 49.1109 37.933 46.257 36.5853C50.4586 34.643 50.4189 34.7223 50.4189 34.7223ZM32.582 47.446C29.0543 47.5649 26.1607 50.1413 25.249 53.8276C24.3374 57.5932 26.0814 61.8344 29.2524 63.6181C31.9478 65.164 36.0701 65.0054 38.2502 62.9839C40.0339 61.3191 40.3113 60.2489 40.3113 60.2489C41.9365 60.2093 47.2479 60.2489 48.437 60.2489C49.864 60.2489 51.4495 60.3678 51.4495 58.5049C51.4495 56.7608 49.7054 56.8797 48.2389 56.8797C45.821 56.8797 41.3419 56.8401 38.0916 56.9194C38.0916 56.9194 37.8538 58.0689 36.9025 59.2976C35.1981 61.4381 32.3045 61.6362 30.1245 59.9715C28.3011 58.5445 28.0633 55.7302 28.8957 53.7484C30.3623 50.3395 35.9512 50.0224 37.8934 53.9466C37.8934 53.9466 39.0033 53.9466 40.787 53.9466C39.3204 49.0711 36.625 47.2874 32.582 47.446ZM51.5288 19.3826C51.5288 19.3826 51.6477 13.0406 46.8119 10.1866C41.9761 7.33274 39.8753 11.9307 29.7281 2.77441C29.7281 2.77441 28.8561 19.8186 47.565 18.5502C47.565 18.5502 46.5741 16.1323 41.5797 14.8242C41.5401 14.8639 46.8515 13.9126 51.5288 19.3826ZM24.8923 17.9556C24.8923 17.1629 24.2581 16.5287 23.4654 16.5287H16.7666C15.9738 16.5287 15.3396 17.1629 15.3396 17.9556C15.3396 18.7484 15.9738 19.3826 16.7666 19.3826H23.4654C24.2581 19.3826 24.8923 18.7484 24.8923 17.9556ZM43.8787 27.0723C43.8787 26.2795 43.2445 25.6453 42.4518 25.6453H11.4552C10.6624 25.6453 10.0282 26.2795 10.0282 27.0723C10.0282 27.865 10.6624 28.4992 11.4552 28.4992H42.4518C43.2445 28.4992 43.8787 27.865 43.8787 27.0723ZM28.7768 36.506C28.7768 35.7133 28.1426 35.0791 27.3498 35.0791H14.1902C13.3974 35.0791 12.7632 35.7133 12.7632 36.506C12.7632 37.2988 13.3974 37.933 14.1902 37.933H27.3498C28.1426 37.933 28.7768 37.2591 28.7768 36.506ZM23.1879 46.0587C23.1879 45.2659 22.5537 44.6317 21.7609 44.6317H5.15278C4.36003 44.6317 3.72583 45.2659 3.72583 46.0587C3.72583 46.8514 4.36003 47.4856 5.15278 47.4856H21.8006C22.5537 47.4856 23.1879 46.8514 23.1879 46.0587Z" fill="url(#paint1_linear_2021_2719)"/>
<defs>
<linearGradient id="paint0_linear_2021_2719" x1="161.241" y1="53.772" x2="161.241" y2="62.8439" gradientUnits="userSpaceOnUse">
<stop stop-color="#2AA5F8"/>
<stop offset="1" stop-color="#5ED6D6"/>
</linearGradient>
<linearGradient id="paint1_linear_2021_2719" x1="36.8857" y1="6.84666" x2="36.8857" y2="80.1619" gradientUnits="userSpaceOnUse">
<stop stop-color="#2AA5F8"/>
<stop offset="1" stop-color="#5ED6D6"/>
</linearGradient>
</defs>
</svg>
